<svg xmlns="http://www.w3.org/2000/svg" width="26px" height="42px" viewBox="-1.141 -3.055 26 42">
<path fill="#4EB8A1" d="M11.86-3.055c-7.165,0-13,6.1-13,13.785c0,1.703,0.341,3.561,0.95,5.235h-0.009l0.06,0.125
c0.046,0.116,0.098,0.23,0.143,0.344L11.86,38.945l11.8-22.376l0.058-0.125c0.049-0.114,0.103-0.228,0.153-0.353l0.037-0.115
c0.63-1.672,0.951-3.436,0.951-5.225C24.859,3.045,19.033-3.055,11.86-3.055z M11.86,15.114c-2.508,0-4.543-2.181-4.543-4.871
c0-2.69,2.04-4.871,4.543-4.871c2.511,0,4.544,2.18,4.544,4.871C16.404,12.932,14.371,15.114,11.86,15.114z"/>
</svg>