<svg xmlns="http://www.w3.org/2000/svg" width="30px" height="28px" viewBox="0.36 1.945 30 28">
<path fill="#7E7A72" d="M30.178,7.26c-0.175-0.25-0.466-0.384-0.778-0.384H7.728c-0.039,0-0.077,0-0.116,0L6.718,4.338
c-0.096-0.269-0.292-0.48-0.563-0.577l-4.487-1.75C1.163,1.817,0.618,2.069,0.425,2.549c-0.194,0.48,0.058,1.039,0.544,1.23
l4.078,1.597l4.992,14.266c-0.213,0.076-0.408,0.249-0.485,0.481l-1.437,3.979c-0.098,0.251-0.06,0.52,0.097,0.73
c0.155,0.211,0.389,0.347,0.66,0.347h0.739c-0.466,0.499-0.739,1.173-0.739,1.903c0,1.575,1.301,2.863,2.894,2.863
c1.592,0,2.894-1.288,2.894-2.863c0-0.73-0.291-1.404-0.738-1.903h6.292c-0.467,0.499-0.738,1.173-0.738,1.903
c0,1.575,1.301,2.863,2.894,2.863c1.592,0,2.894-1.288,2.894-2.863c0-0.73-0.292-1.404-0.738-1.903h0.894
c0.447,0,0.795-0.347,0.795-0.79c0-0.441-0.348-0.788-0.795-0.788H10l0.894-2.461c0.116,0.059,0.234,0.077,0.369,0.077H25.38
c0.427,0,0.796-0.27,0.913-0.654l4.02-12.4C30.41,7.819,30.35,7.511,30.178,7.26L30.178,7.26z M11.748,28.312
c-0.699,0-1.282-0.574-1.282-1.269c0-0.69,0.583-1.269,1.282-1.269c0.7,0,1.282,0.578,1.282,1.269
C13.031,27.737,12.448,28.312,11.748,28.312L11.748,28.312z M22.332,28.312c-0.698,0-1.281-0.574-1.281-1.269
c0-0.69,0.583-1.269,1.281-1.269c0.699,0,1.282,0.578,1.282,1.269C23.634,27.737,23.051,28.312,22.332,28.312L22.332,28.312z
 M27.381,10.913h-4.914V8.759h5.613L27.381,10.913z M25.982,15.277h-3.495v-2.46h4.293L25.982,15.277z M16.098,15.277v-2.46h4.448
v2.46H16.098z M20.546,17.2v2.076h-4.448V17.2H20.546z M9.69,12.817h4.486v2.46h-3.632L9.69,12.817z M16.098,10.913V8.759h4.448
v2.154H16.098z M14.176,8.779v2.153H9.03L8.272,8.779H14.176z M11.223,17.2h2.953v2.076h-2.232L11.223,17.2z M22.468,19.257v-2.075
h2.875l-0.661,2.075H22.468z"/>
</svg>