<svg xmlns="http://www.w3.org/2000/svg" width="21px" height="508.001px" viewBox="-0.64 -32.555 21 508.001">
<path fill="#113E50" d="M14.845,62.445H4.87c-0.831,0-1.512,0.668-1.512,1.486v19.026c0,0.817,0.681,1.487,1.512,1.487h9.975
c0.834,0,1.513-0.668,1.513-1.486V63.933C16.358,63.113,15.679,62.445,14.845,62.445z M8.264,63.517h3.191
c0.103,0,0.184,0.081,0.184,0.181c0,0.101-0.081,0.18-0.184,0.18H8.264c-0.102,0-0.185-0.079-0.185-0.18
C8.08,63.598,8.163,63.517,8.264,63.517z M9.86,83.704c-0.417,0-0.755-0.333-0.755-0.745s0.339-0.742,0.755-0.742
c0.417,0,0.757,0.33,0.757,0.742S10.277,83.704,9.86,83.704z M15.307,81.695H4.412V64.802h10.896L15.307,81.695L15.307,81.695z"/>
<path fill="#113E50" d="M0.206,166.126c-0.451,0.178-0.771,0.594-0.835,1.084c-0.064,0.49,0.141,0.979,0.532,1.271l4.287,3.188
l15.226-12.25L5.951,172.983l5.861,4.36c0.371,0.277,0.854,0.359,1.295,0.224c0.442-0.14,0.797-0.481,0.955-0.924l6.27-17.548
c0.063-0.178,0.017-0.379-0.112-0.51c-0.133-0.133-0.327-0.176-0.503-0.107L0.206,166.126z"/>
<path fill="#113E50" d="M3.171,172.73l0.037,0.204l0.831,4.651c0.063,0.348,0.29,0.635,0.604,0.775
c0.314,0.139,0.678,0.107,0.965-0.082c1.159-0.763,2.673-1.777,2.631-1.837L3.171,172.73z"/>
<path fill="#113E50" d="M9.859-32.555c-3.583,0-6.5,3.035-6.5,6.859c0,0.848,0.169,1.772,0.475,2.605H3.828l0.029,0.062
c0.023,0.058,0.049,0.115,0.073,0.171l5.928,12.303l5.899-12.235l0.027-0.062c0.025-0.057,0.054-0.114,0.078-0.176l0.019-0.057
c0.316-0.832,0.477-1.71,0.477-2.6C16.358-29.52,13.443-32.555,9.859-32.555z M9.859-23.514c-1.254,0-2.271-1.085-2.271-2.424
s1.019-2.424,2.271-2.424c1.255,0,2.27,1.085,2.27,2.424C12.13-24.6,11.114-23.514,9.859-23.514z"/>
<path fill="#FFFFFF" d="M14.846,359.446H4.871c-0.831,0-1.512,0.668-1.512,1.486v19.026c0,0.816,0.681,1.487,1.512,1.487h9.975
c0.834,0,1.513-0.669,1.513-1.487v-19.025C16.359,360.114,15.68,359.446,14.846,359.446z M8.265,360.517h3.19
c0.103,0,0.184,0.081,0.184,0.182c0,0.1-0.081,0.18-0.184,0.18h-3.19c-0.102,0-0.185-0.08-0.185-0.18
C8.082,360.598,8.165,360.517,8.265,360.517z M9.861,380.705c-0.417,0-0.755-0.334-0.755-0.746s0.339-0.742,0.755-0.742
c0.417,0,0.757,0.33,0.757,0.742S10.278,380.705,9.861,380.705z M15.308,378.696H4.413v-16.894h10.896L15.308,378.696
L15.308,378.696z"/>
<path fill="#FFFFFF" d="M0.206,463.126c-0.451,0.178-0.771,0.594-0.835,1.084c-0.064,0.49,0.141,0.979,0.532,1.271l4.287,3.188
l15.226-12.25L5.951,469.983l5.861,4.36c0.371,0.277,0.854,0.359,1.295,0.224c0.442-0.14,0.797-0.481,0.955-0.924l6.27-17.548
c0.063-0.178,0.017-0.379-0.112-0.51c-0.133-0.133-0.327-0.176-0.503-0.107L0.206,463.126z"/>
<path fill="#FFFFFF" d="M3.171,469.73l0.037,0.204l0.831,4.651c0.063,0.348,0.29,0.635,0.604,0.775
c0.314,0.139,0.678,0.107,0.965-0.082c1.159-0.763,2.673-1.777,2.631-1.837L3.171,469.73z"/>
<path fill="#FFFFFF" d="M9.86,264.446c-3.583,0-6.5,3.035-6.5,6.859c0,0.848,0.169,1.772,0.475,2.604H3.829l0.029,0.063
c0.023,0.058,0.049,0.115,0.073,0.171l5.928,12.303l5.898-12.235l0.027-0.062c0.025-0.058,0.054-0.114,0.078-0.176l0.019-0.058
c0.316-0.832,0.477-1.709,0.477-2.6C16.359,267.481,13.444,264.446,9.86,264.446z M9.86,273.487c-1.254,0-2.271-1.085-2.271-2.424
s1.019-2.424,2.271-2.424c1.255,0,2.27,1.085,2.27,2.424C12.131,272.401,11.115,273.487,9.86,273.487z"/>
</svg>