<svg xmlns="http://www.w3.org/2000/svg" width="93px" height="378.5px" viewBox="242.5 228.39 93 378.5">
<path fill="#FFFFFF" d="M324.897,252.874c1.375,0,2.684,0.242,3.971,0.749c1.264,0.508,2.395,1.19,3.393,2.094
c0.977,0.903,1.775,1.983,2.352,3.24c0.576,1.255,0.887,2.665,0.887,4.231c0,1.387-0.244,2.71-0.754,3.943
c-0.51,1.234-1.197,2.313-2.129,3.24c-0.91,0.926-2.02,1.652-3.328,2.203c-1.309,0.529-2.771,0.815-4.391,0.815
c-1.42,0-2.773-0.264-4.037-0.771c-1.264-0.507-2.352-1.212-3.283-2.138c-0.932-0.903-1.662-1.983-2.195-3.217
c-0.533-1.234-0.82-2.601-0.82-4.076c0-0.662,0.066-1.324,0.221-2.028c0.133-0.705,0.355-1.366,0.645-2.049
c0.287-0.662,0.643-1.302,1.041-1.918c0.422-0.618,0.889-1.146,1.398-1.586l-14.748-17.41l0.266-0.265l-0.377-0.507
c-0.488,0.331-0.844,0.507-1.064,0.507c0.066-0.198,0.109-0.396,0.199-0.617c0.066-0.22,0.199-0.396,0.355-0.529l0.775-0.551
c-0.066-0.088-0.111-0.176-0.199-0.264c-0.066-0.088-0.156-0.133-0.244-0.133c-0.066,0-0.111-0.044-0.178-0.154
c-0.066-0.11-0.088-0.198-0.088-0.286c-0.488,0-0.844,0.44-1.064,1.322l-6.123,22.479c0.089,0.109,0.178,0.221,0.267,0.33
c0.066,0.11,0.11,0.265,0.177,0.419c0.066,0.177,0.089,0.375,0.089,0.595c0,0.727-0.222,1.256-0.665,1.564
c-0.443,0.31-0.909,0.463-1.397,0.463c-0.199,0-0.421-0.021-0.644-0.088l-0.864,2.601c-0.134,0.396-0.267,0.705-0.377,0.903
c-0.111,0.198-0.289,0.309-0.511,0.309c-0.066,0-0.155,0.044-0.288,0.132c-0.133,0.089-0.267,0.177-0.377,0.264
c-0.134,0.09-0.267,0.177-0.377,0.267c-0.134,0.087-0.222,0.131-0.289,0.131c-0.066,0-0.177-0.021-0.354-0.088
s-0.333-0.11-0.399-0.177c-0.155-0.065-0.222-0.133-0.244-0.242c-0.021-0.109-0.021-0.199-0.021-0.33c0-0.221,0-0.397,0.021-0.507
c0.022-0.111,0.066-0.198,0.2-0.265l1.619-1.146c0.11-0.087,0.266-0.132,0.421-0.132c0.066,0,0.111,0,0.155,0.022
c0.045,0.022,0.089,0.022,0.111,0.022c0.022,0.021,0.066,0.043,0.089,0.043l0.51-1.962c-1.575,0.618-2.905,1.058-3.992,1.279
c-1.087,0.22-2.019,0.374-2.795,0.419c-0.089,0-0.466,0.021-1.153,0.044c-0.688,0.021-1.574,0.043-2.706,0.065
c-1.108,0.021-2.396,0.045-3.859,0.089c-1.464,0.043-2.994,0.065-4.591,0.088c-1.597,0.021-3.238,0.044-4.901,0.066
c-1.664,0.021-3.283,0.044-4.813,0.044c-0.178,1.255-0.577,2.401-1.197,3.459c-0.621,1.058-1.42,2.006-2.352,2.799
c-0.953,0.794-2.019,1.411-3.194,1.874c-1.175,0.462-2.439,0.683-3.748,0.683c-1.397,0-2.728-0.242-3.992-0.704
c-1.265-0.463-2.373-1.147-3.327-2.051c-0.953-0.903-1.708-2.004-2.262-3.35c-0.555-1.322-0.844-2.843-0.844-4.562
c0-1.388,0.267-2.688,0.799-3.9c0.532-1.213,1.265-2.248,2.196-3.152c0.931-0.902,2.019-1.607,3.305-2.115
c1.264-0.506,2.639-0.771,4.125-0.771c1.975,0,3.748,0.463,5.323,1.409c1.575,0.927,2.905,2.248,4.037,3.924l5.323-2.887
l-6.942-18.644c0.377-0.22,0.731-0.418,1.108-0.595c0.311-0.132,0.666-0.286,1.064-0.418c0.399-0.132,0.777-0.22,1.109-0.22
c0.488,0,0.976,0.375,1.464,1.146c0.488,0.771,0.909,1.653,1.265,2.688c0.354,1.014,0.643,2.049,0.864,3.085
c0.223,1.036,0.311,1.829,0.289,2.358c1.021-0.066,2.04-0.111,3.038-0.177c0.865-0.066,1.753-0.11,2.685-0.132
c0.931-0.022,1.729-0.044,2.417-0.044c0.311,0,0.644,0.021,0.976,0.044c0.333,0.022,0.644,0.11,0.932,0.243
c0.267,0.132,0.488,0.308,0.688,0.572c0.178,0.265,0.289,0.595,0.289,1.014c0,0.22-0.022,0.418-0.045,0.55
c0.133-0.132,0.422-0.418,0.843-0.859c0.422-0.419,0.91-0.926,1.486-1.499c0.577-0.573,1.198-1.19,1.863-1.851
c0.665-0.662,1.353-1.322,2.019-1.939c0.665-0.617,1.309-1.19,1.885-1.675c0.577-0.507,1.087-0.881,1.53-1.124
c1.863-1.168,3.793-2.159,5.834-2.953c2.018-0.815,4.081-1.63,6.122-2.446c-0.156-0.044-0.266-0.11-0.355-0.132
c-0.111-0.022-0.154-0.066-0.154-0.132s0.109-0.176,0.332-0.331c0.223-0.176,0.377-0.287,0.465-0.331
c-0.664-0.22-1.242-0.661-1.752-1.322c-0.664,0.088-1.397,0.154-2.195,0.243c-0.821,0.066-1.664,0.132-2.573,0.198
c-0.909,0.067-1.818,0.111-2.772,0.177s-1.863,0.132-2.795,0.22c-0.066,0-0.133,0.022-0.266,0.066
c-0.111,0.044-0.178,0.11-0.178,0.199c0,0.154,0.066,0.22,0.222,0.264c0.133,0.022,0.333,0.154,0.599,0.375
c0.311,0.265,0.577,0.462,0.799,0.617s0.311,0.287,0.311,0.353c0,0.177-0.066,0.353-0.178,0.573c-0.11,0.22-0.266,0.33-0.421,0.33
c-0.267,0-0.511-0.132-0.799-0.375c-0.266-0.264-0.621-0.595-1.042-1.013c-0.311-0.309-0.6-0.617-0.843-0.926
c-0.244-0.309-0.355-0.529-0.355-0.683c0-0.287,0.066-0.507,0.222-0.639c0.134-0.133,0.422-0.243,0.865-0.309
c1.486-0.111,2.795-0.199,3.903-0.265c1.109-0.066,2.107-0.11,2.973-0.155c0.865-0.043,1.663-0.088,2.351-0.132
c0.71-0.044,1.376-0.088,2.041-0.154c0.178-0.066,0.4-0.154,0.688-0.309c0.289-0.132,0.488-0.22,0.645-0.22
c0.066,0,0.133,0.044,0.242,0.154c0.111,0.11,0.201,0.22,0.289,0.331c0.09,0.132,0.156,0.242,0.223,0.353
c0.066,0.11,0.088,0.176,0.088,0.22c0,0.088-0.066,0.154-0.199,0.243c-0.133,0.066-0.244,0.132-0.355,0.154
c0.266,0.22,0.621,0.418,1.064,0.55c0.133,0.067,0.223,0.199,0.223,0.419c0,0.176-0.023,0.352-0.066,0.551
c-0.045,0.198-0.09,0.396-0.156,0.595l2.063,2.776c0.066,0,0.135,0.022,0.223,0.088c0.088,0.066,0.133,0.154,0.133,0.309
c0,0.066,0.021,0.132,0.09,0.264c0.066,0.11,0.109,0.199,0.176,0.265c0.111-0.066,0.223-0.111,0.311-0.176
c0.09-0.066,0.178-0.088,0.268-0.088c0.066,0,0.088,0.066,0.109,0.199c0.023,0.132,0.023,0.264,0.023,0.396l-0.688,0.595
l14.615,18.313c0.775-0.661,1.73-1.146,2.883-1.521C322.679,253.05,323.81,252.874,324.897,252.874z M252.88,271.187
c1.108,0,2.151-0.176,3.083-0.529c0.953-0.353,1.774-0.837,2.506-1.455c0.732-0.616,1.331-1.322,1.797-2.137
c0.466-0.815,0.798-1.676,0.976-2.623h-7.962c-0.311,0-0.644-0.11-0.977-0.353c-0.332-0.221-0.487-0.573-0.487-1.058
c0-0.308,0.11-0.616,0.354-0.926c0.244-0.309,0.599-0.439,1.042-0.439c0.2,0,0.399,0.043,0.6,0.109
c0.199,0.065,0.377,0.22,0.51,0.44l5.833-3.195c-0.82-1.278-1.841-2.271-3.038-2.997c-1.198-0.728-2.617-1.08-4.236-1.08
c-1.064,0-2.063,0.199-3.017,0.572c-0.954,0.376-1.797,0.927-2.528,1.61c-0.732,0.682-1.309,1.498-1.753,2.424
c-0.443,0.947-0.665,1.961-0.665,3.063c0,1.08,0.178,2.138,0.555,3.174c0.377,1.035,0.909,1.961,1.619,2.755
c0.71,0.793,1.553,1.432,2.528,1.916C250.595,270.944,251.682,271.187,252.88,271.187z M261.375,263.517l-6.343-0.043l-0.555,0.329
l0.133,0.134h6.721C261.353,263.848,261.375,263.694,261.375,263.517z M261.375,263.011c0-0.485-0.066-1.015-0.222-1.587
c-0.133-0.573-0.288-1.014-0.421-1.323l-4.969,2.799L261.375,263.011z M263.527,263.054l7.03,0.044l-2.706-7.118l-5.146,3.063
c0.2,0.485,0.377,1.081,0.532,1.808S263.482,262.327,263.527,263.054z M264.968,263.914v-0.374h-1.464
c0,0.132-0.022,0.264-0.045,0.374H264.968z M266.521,249.81l1.752,4.98c1.309-0.75,2.573-1.453,3.771-2.137
c0.51-0.287,1.042-0.574,1.575-0.904c0.532-0.309,1.087-0.617,1.597-0.904c0.532-0.287,1.021-0.551,1.508-0.816
c0.466-0.264,0.888-0.462,1.265-0.639c-0.333-0.265-0.665-0.485-0.954-0.705c-0.311-0.22-0.443-0.353-0.443-0.397
c0-0.088,0.089-0.176,0.244-0.309c0.155-0.11,0.354-0.176,0.621-0.176l0.643-0.595c-0.066,0-0.266,0.044-0.621,0.11
c-0.354,0.066-0.82,0.176-1.375,0.308c-0.554,0.132-1.175,0.265-1.863,0.397c-0.687,0.132-1.375,0.309-2.106,0.463
C270.468,248.907,268.606,249.326,266.521,249.81z M285.839,263.143c0.377,0,0.82-0.066,1.353-0.177s1.087-0.241,1.642-0.396
c0.577-0.153,1.131-0.33,1.686-0.507s1.064-0.353,1.53-0.485c-0.177-0.197-0.266-0.528-0.266-0.969
c0-0.286,0.066-0.529,0.178-0.771l-13.331-10.005c-1.686,0.992-3.371,1.961-5.034,2.908c-1.664,0.947-3.35,1.918-5.035,2.909
l2.861,7.448c2.263,0.022,4.348,0.045,6.299,0.045H285.839z M301.741,234.362l-0.643-0.904c-0.066-0.066-0.111-0.11-0.178-0.198
c-0.066-0.066-0.154-0.11-0.311-0.11c-0.154,0-0.377,0.066-0.73,0.177c-0.268,0.088-0.732,0.264-1.398,0.55
c-0.665,0.287-1.397,0.574-2.196,0.904c-0.775,0.309-1.553,0.617-2.284,0.948c-0.754,0.309-1.309,0.551-1.708,0.727
c0,0.132,0.045,0.331,0.111,0.573c0.066,0.242,0.155,0.353,0.244,0.353c0.133,0,0.288-0.044,0.421-0.11
c0.133-0.066,0.288-0.11,0.422-0.11c0.11,0,0.199,0.088,0.244,0.242c0.044,0.154,0.066,0.265,0.066,0.331
c0,0.11-0.022,0.176-0.089,0.176s-0.111-0.044-0.155-0.11c-0.045-0.066-0.089-0.11-0.155-0.11c-0.111,0-0.333,0.132-0.688,0.375
c-0.333,0.264-0.666,0.441-0.932,0.551c-0.2,0.087-0.333,0.242-0.399,0.44c-0.066,0.22-0.111,0.441-0.111,0.661
c0,0.264,0.022,0.418,0.089,0.463c0.178,0,0.267,0.022,0.267,0.088c0,0.11-0.089,0.176-0.311,0.176
c-0.288,0-0.422-0.221-0.422-0.683c0-0.176,0.022-0.353,0.066-0.573c0.045-0.22,0.111-0.353,0.2-0.441
c0.11-0.132,0.222-0.265,0.311-0.353s0.199-0.198,0.332-0.331c0-0.11-0.066-0.309-0.222-0.573c-0.133-0.264-0.288-0.44-0.421-0.484
c-0.466,0.198-0.932,0.418-1.42,0.683c-0.398,0.22-0.82,0.463-1.286,0.727c-0.466,0.265-0.843,0.551-1.153,0.859
c-0.377,0.331-0.976,0.904-1.818,1.697c-0.843,0.793-1.73,1.653-2.685,2.601c-0.953,0.947-1.841,1.851-2.728,2.776
c-0.865,0.904-1.53,1.609-1.996,2.138l0.82,0.595c1.176-0.683,2.329-1.278,3.482-1.785c1.131-0.507,2.195-0.948,3.194-1.345
c0.976-0.375,1.862-0.705,2.661-0.947c0.776-0.243,1.397-0.441,1.863-0.573c0.576-0.176,1.22-0.33,1.951-0.462
c0.732-0.133,1.486-0.287,2.24-0.397c0.776-0.132,1.553-0.242,2.329-0.353s1.531-0.221,2.195-0.309l1.975-7.272
c0.09-0.309,0.199-0.551,0.355-0.727C301.321,234.693,301.521,234.517,301.741,234.362z M294.467,258.669l4.147-15.03
c-0.398,0.066-0.954,0.132-1.619,0.221c-0.688,0.088-1.419,0.176-2.195,0.309c-0.776,0.11-1.531,0.243-2.285,0.375
s-1.396,0.286-1.907,0.419c-0.51,0.132-1.176,0.33-1.974,0.573c-0.799,0.243-1.686,0.551-2.662,0.926
c-0.976,0.375-2.019,0.815-3.127,1.322c-1.109,0.507-2.263,1.08-3.438,1.719l13.063,9.542c0.266-0.221,0.51-0.353,0.754-0.396
c0.244-0.045,0.443-0.067,0.621-0.067C294.09,258.581,294.29,258.625,294.467,258.669z M324.919,271.407
c0.998,0,1.996-0.22,2.994-0.639s1.885-1.014,2.684-1.763s1.441-1.631,1.953-2.624c0.486-0.991,0.754-2.049,0.754-3.193
c0-1.059-0.223-2.073-0.645-3.063c-0.42-0.992-1.02-1.853-1.752-2.602c-0.754-0.727-1.619-1.321-2.66-1.784
c-1.021-0.464-2.152-0.685-3.35-0.685c-0.754,0-1.598,0.134-2.529,0.376c-0.953,0.264-1.707,0.661-2.262,1.234l4.236,5.156
c0.088-0.066,0.199-0.089,0.332-0.11c0.133-0.022,0.223-0.022,0.289-0.022c0.422,0,0.754,0.133,0.998,0.419
s0.355,0.596,0.355,0.926c0,0.374-0.135,0.705-0.377,0.97c-0.268,0.286-0.578,0.418-0.977,0.418c-0.4,0-0.732-0.132-0.998-0.396
c-0.266-0.265-0.4-0.595-0.4-0.992c0-0.287,0.066-0.529,0.223-0.771l-4.393-5.069c-0.73,0.749-1.33,1.63-1.773,2.688
c-0.443,1.058-0.666,2.138-0.666,3.284c0,1.058,0.201,2.071,0.6,3.041c0.398,0.969,0.953,1.851,1.664,2.622
c0.709,0.771,1.553,1.388,2.527,1.851C322.679,271.165,323.743,271.407,324.919,271.407z"/>
<path fill="#FFFFFF" d="M314.704,580.11c3.666,0,6.799,1.316,9.393,3.947c2.596,2.608,3.902,5.756,3.902,9.443
c0,3.687-1.307,6.855-3.902,9.465c-2.572,2.609-5.705,3.925-9.393,3.925c-3.646,0-6.777-1.315-9.393-3.925
c-2.596-2.609-3.902-5.778-3.902-9.465c0-1.229,0.17-2.458,0.514-3.709l-0.279-0.085c-0.365,1.228-0.557,2.5-0.557,3.794
c0,0.495-0.236,0.733-0.707,0.733c-0.516,0-0.773-0.238-0.773-0.733c0-2.912,0.773-5.585,2.295-8.064
c1.48-2.371,3.475-4.204,6.004-5.477c-0.086-0.193-0.191-0.496-0.342-0.927c-0.15-0.345-0.236-0.604-0.301-0.798
c-0.172-0.129-0.279-0.258-0.344-0.389l-0.428-1.229c-1.158,0.798-2.273,1.617-3.324,2.479c-1.158,0.927-2.445,2.265-3.838,4.011
c-0.965,1.294-1.867,2.522-2.703,3.729c-1.588,2.308-3.045,3.946-4.396,4.896c0.086,0.279,0.15,0.581,0.193,0.927h0.215
c0-0.389,0.193-0.582,0.578-0.582h3.689c0.406,0,0.6,0.193,0.6,0.582v0.668c0,0.41-0.193,0.604-0.6,0.604h-3.689
c-0.213,0-0.385-0.109-0.492-0.304h-0.344c-0.15,1.208-0.664,2.199-1.586,2.998c-0.924,0.798-1.994,1.186-3.26,1.186
c-0.881,0-1.717-0.237-2.488-0.712l-5.34-0.452c-0.707,2.954-2.252,5.412-4.633,7.331c-2.422,1.919-5.168,2.889-8.254,2.889
c-3.668,0-6.799-1.314-9.395-3.924c-2.594-2.608-3.902-5.778-3.902-9.466c0-1.271,0.193-2.521,0.559-3.729l-0.131-0.064
c-0.299,1.164-0.449,2.372-0.449,3.621c0,0.496-0.258,0.734-0.771,0.734c-0.494,0-0.73-0.238-0.73-0.734
c0-4.116,1.459-7.653,4.354-10.564c2.896-2.91,6.412-4.377,10.508-4.377c2.381,0,4.611,0.539,6.734,1.617
c2.102,1.1,3.816,2.588,5.189,4.441c1.588-0.582,3.088-1.035,4.482-1.314l-1.33-3.859c-0.021-0.13-0.021-0.259-0.021-0.389
l-1.758-5.39c-0.537-0.087-1.094-0.216-1.717-0.432l-0.729,1.294c-0.086,0.172-0.215,0.237-0.387,0.237
c-0.148,0-0.256-0.087-0.363-0.237l-0.795-1.401c-0.086-0.13-0.086-0.259,0-0.389c0.066-0.108,0.15-0.172,0.279-0.216
c-0.234-0.107-0.514-0.215-0.793-0.345c-0.15-0.063-0.236-0.194-0.301-0.388l-0.064-1.293c0.043-0.389,0.408-0.561,1.137-0.519
c0.365,0.022,0.686,0.065,0.965,0.151c0.43,0.172,0.9,0.302,1.395,0.389c1.051,0.236,2.811,0.193,5.275-0.195
c0.879-0.107,1.545,0.087,1.973,0.582c0.365,0.26,0.516,0.518,0.43,0.777c-0.215,0.388-0.836,0.84-1.824,1.379
c-0.965,0.389-2.016,0.604-3.195,0.669l1.588,4.808c0.172,0.108,0.277,0.238,0.344,0.432l2.615,7.633
c1.029-0.346,1.973-0.755,2.832-1.186c1.35-0.756,3.236-2.803,5.639-6.124l0.021-0.064c2.895-3.493,6.476-5.628,10.701-6.403
l-0.236-0.582c-0.064-0.194-0.064-0.367,0-0.561l-0.557-1.725c-0.086-0.303,0-0.583,0.213-0.799l1.352-1.229l-0.129-2.846
c-0.043-0.238-0.193-0.41-0.449-0.496c-0.451-0.043-2.016,0.086-4.719,0.389l-2.873,0.279c-0.494,0.043-0.75-0.193-0.793-0.668
c-0.064-0.496,0.172-0.776,0.664-0.819l2.83-0.28c3.131-0.346,4.869-0.475,5.234-0.366c0.963,0.302,1.5,0.927,1.586,1.875v0.021
l0.129,2.976c0.043,0.151,0.043,0.28,0,0.389l0.021,0.604c0.021,0.518-0.215,0.775-0.729,0.797h-0.021
c-0.172,0-0.301-0.043-0.43-0.15l-0.344,0.303l0.387,1.293c0.15,0.107,0.236,0.236,0.279,0.388l2.035,5.8
c0.088,0.173,0.109,0.324,0.066,0.496c0.043,0.15,0.256,0.689,0.643,1.617c1.715-0.646,3.518-0.971,5.383-0.971
c0.492,0,0.729,0.237,0.729,0.733c0,0.475-0.236,0.712-0.729,0.712c-1.674,0-3.281,0.323-4.869,0.948
c0.021,0.022,0.043,0.065,0.066,0.13c0,0.043,0,0.086,0.021,0.15C311.466,580.413,313.073,580.11,314.704,580.11z M254.316,589.167
c0.9-2.651,2.488-4.83,4.762-6.49c2.338-1.725,4.932-2.566,7.805-2.566c4.225,0,7.656,1.661,10.295,4.96
c0.043-0.021,0.105-0.043,0.17-0.087c-2.701-3.449-6.197-5.174-10.486-5.174c-2.938,0-5.574,0.884-7.912,2.674
c-2.316,1.703-3.902,3.902-4.783,6.64L254.316,589.167z M266.882,605.38c2.703,0,5.127-0.819,7.248-2.479
c2.104-1.661,3.475-3.772,4.139-6.34l-11.879-1.077v-0.13c-0.965-0.193-1.438-0.798-1.438-1.768l-9.436-3.342
c-0.301,1.034-0.449,2.134-0.449,3.256c0,3.277,1.156,6.102,3.473,8.43C260.814,604.216,263.601,605.38,266.882,605.38z
 M267.419,591.69c2.336-2.416,5.125-4.399,8.385-5.952c-2.381-2.759-5.361-4.14-8.922-4.14c-2.551,0-4.867,0.776-6.947,2.307
c-2.016,1.488-3.432,3.408-4.246,5.757l9.35,3.3c0.236-0.776,0.771-1.187,1.566-1.229L267.419,591.69z M278.419,595.979
c0.129-0.646,0.193-1.314,0.236-1.962l-10.143,0.065c-0.129,0.388-0.344,0.711-0.645,0.948L278.419,595.979z M268.556,592.271
c-0.043,0.021-0.086,0.064-0.129,0.13c-0.064,0.043-0.129,0.086-0.193,0.129c0.086,0.107,0.172,0.216,0.236,0.367l10.186-0.065
c-0.021-0.236-0.043-0.496-0.086-0.775l-5.383,0.085l-2.252,0.194c-0.492,0.043-0.836,0-1.029-0.086L268.556,592.271z
 M278.035,589.534c-0.387-1.035-0.881-1.984-1.459-2.847c-2.809,1.337-5.275,2.975-7.441,4.958l1.008-0.021l0.301-0.279
c0.6-0.604,1.158-0.928,1.672-0.928L278.035,589.534z M279.642,589.295c-0.365-1.164-0.879-2.263-1.545-3.299
c-0.191,0.086-0.234,0.107-0.191,0.086c0.664,1.014,1.199,2.113,1.586,3.257L279.642,589.295z M279.492,585.436
c0.709,1.165,1.266,2.372,1.652,3.644l3.967-0.603l-0.086-0.238c-0.129,0.044-0.344,0.087-0.643,0.15
c-0.064,0.021-0.107,0.021-0.15,0.021c-0.408,0-0.643-0.193-0.73-0.603c-0.084-0.495,0.129-0.775,0.602-0.885
c0.021,0,0.172-0.021,0.428-0.086l-0.879-2.565C282.388,584.509,281.015,584.897,279.492,585.436z M284.21,596.497
c-0.709-0.69-1.158-1.53-1.373-2.501l-2.68,0.021c-0.045,0.69-0.129,1.381-0.236,2.092L284.21,596.497z M280.244,592.81
c0-0.107,0-0.259-0.021-0.453v-0.15c0-0.021,0-0.087-0.021-0.216l-0.129,0.021c0.043,0.28,0.064,0.561,0.064,0.798H280.244z
 M282.837,592.056c-0.129-0.26-0.406-0.411-0.879-0.454l-0.301,0.021c0.021,0.216,0.021,0.389,0.021,0.454l0.021,0.129
c0.021,0.259,0.021,0.475,0.021,0.604l1.029-0.021C282.773,592.573,282.794,592.314,282.837,592.056z M287.599,596.412
c0.793,0,1.5-0.26,2.1-0.799c0.58-0.539,0.924-1.185,1.031-1.962h-0.58c-0.129,0.604-0.406,1.122-0.879,1.531
c-0.492,0.431-1.051,0.646-1.672,0.646c-0.73,0-1.352-0.258-1.822-0.775c-0.516-0.518-0.773-1.142-0.773-1.875
c0-0.69,0.258-1.294,0.773-1.812c0.492-0.518,1.092-0.777,1.822-0.777c0.621,0,1.18,0.195,1.65,0.584
c0.473,0.409,0.771,0.905,0.879,1.465h0.602c-0.15-0.754-0.494-1.38-1.072-1.876c-0.602-0.539-1.309-0.797-2.08-0.797
c-0.902,0-1.631,0.323-2.23,0.947c-0.623,0.605-0.943,1.359-0.943,2.244c0,0.905,0.32,1.659,0.943,2.264
C285.968,596.087,286.697,596.412,287.599,596.412z M302.288,577.933c1.266-1.013,2.508-1.94,3.752-2.76l-0.387-1.164
c-3.967,0.668-7.289,2.651-10.013,5.907c-2.51,3.515-4.547,5.692-6.09,6.555c-0.965,0.518-1.973,0.97-3.066,1.358l0.15,0.453
c0.535-0.065,0.857-0.065,1.008-0.021c1.736,0,3.088,0.712,4.053,2.134c1.137-0.883,2.4-2.351,3.816-4.42
c0.879-1.229,1.801-2.501,2.765-3.795C299.692,580.348,301.044,578.924,302.288,577.933z M302.138,589.209
c1.158-3.363,3.303-5.887,6.455-7.568c-0.043-0.107-0.064-0.193-0.086-0.279c-3.26,1.703-5.469,4.269-6.648,7.739L302.138,589.209z
 M314.704,605.38c3.26,0,6.047-1.164,8.385-3.472c2.295-2.329,3.453-5.131,3.453-8.431c0-3.276-1.158-6.08-3.453-8.43
c-2.338-2.308-5.125-3.472-8.385-3.472c-1.438,0-2.854,0.259-4.246,0.798c1.908,4.852,3.367,8.214,4.396,10.112
c0.686,0.108,1.029,0.496,1.029,1.187c0,0.344-0.107,0.624-0.344,0.861c-0.236,0.238-0.537,0.367-0.857,0.367
c-0.688,0-1.072-0.367-1.158-1.079l-10.207-3.578c-0.279,1.034-0.43,2.112-0.43,3.212c0,3.277,1.158,6.102,3.453,8.431
C308.655,604.216,311.444,605.38,314.704,605.38z M309.106,583.021c-2.744,1.51-4.609,3.753-5.574,6.706l10.078,3.515
C312.538,591.257,311.036,587.851,309.106,583.021z"/>
</svg>