<svg xmlns="http://www.w3.org/2000/svg" width="14px" height="7px" viewBox="293.999 426.39 14 7">
<path fill="#FFFFFF" d="M307.688,431.799l-6.078-5.183l-0.022-0.022c-0.023-0.022-0.048-0.045-0.07-0.045
c-0.023-0.022-0.047-0.022-0.07-0.047c-0.023-0.022-0.047-0.022-0.071-0.046c-0.022-0.021-0.045-0.021-0.092-0.021
c-0.024,0-0.047-0.023-0.095-0.023c-0.022,0-0.069-0.021-0.093-0.021s-0.07,0-0.093,0c-0.024,0-0.071,0-0.095,0
s-0.068,0-0.093,0.021c-0.023,0-0.047,0-0.094,0.023c-0.023,0-0.047,0.021-0.093,0.021c-0.023,0-0.047,0.023-0.071,0.046
c-0.022,0.024-0.046,0.024-0.07,0.047c-0.022,0.022-0.047,0.022-0.069,0.045l-0.023,0.022l-6.076,5.183
c-0.397,0.34-0.42,0.909-0.093,1.273c0.187,0.203,0.444,0.317,0.701,0.317c0.21,0,0.443-0.067,0.607-0.228l5.469-4.659l5.468,4.659
c0.187,0.16,0.397,0.228,0.608,0.228c0.255,0,0.514-0.114,0.7-0.317C308.107,432.708,308.061,432.117,307.688,431.799z"/>
</svg>