<svg xmlns="http://www.w3.org/2000/svg" width="26px" height="75px" viewBox="7.36 4.445 26 75">
<circle fill="#113E50" cx="20.359" cy="17.445" r="13"/>
<path fill="#FFFFFF" d="M24.008,30.444v-8.883h2.969l0.742-3.701h-3.711v-1.481c0-1.48,0.744-2.22,2.227-2.22h1.484v-3.702
c-0.742,0-1.661,0-2.97,0c-2.728,0-4.454,2.132-4.454,5.182v2.221h-2.97v3.701h2.97v8.884L24.008,30.444L24.008,30.444z"/>
<circle fill="#113E50" cx="20.359" cy="66.445" r="13"/>
<path fill="#FFFFFF" d="M27.972,61.798c-0.561,0.245-1.164,0.407-1.795,0.483c0.648-0.379,1.143-0.979,1.375-1.699
c-0.602,0.351-1.271,0.605-1.984,0.745c-0.568-0.598-1.383-0.972-2.279-0.972c-1.727,0-3.125,1.376-3.125,3.075
c0,0.24,0.029,0.477,0.08,0.702c-2.596-0.131-4.896-1.355-6.438-3.213c-0.27,0.454-0.425,0.982-0.425,1.546
c0,1.065,0.555,2.006,1.391,2.559c-0.511-0.018-0.993-0.157-1.412-0.386c0,0.012,0,0.025,0,0.038c0,1.491,1.077,2.734,2.504,3.016
c-0.26,0.069-0.537,0.108-0.822,0.108c-0.201,0-0.396-0.018-0.587-0.054c0.398,1.22,1.552,2.107,2.916,2.135
c-1.066,0.823-2.412,1.316-3.877,1.316c-0.252,0-0.5-0.013-0.746-0.044c1.382,0.873,3.025,1.381,4.791,1.381
c5.746,0,8.889-4.683,8.889-8.747c0-0.129-0.004-0.266-0.012-0.396C27.023,62.954,27.552,62.415,27.972,61.798z"/>
</svg>