<svg xmlns="http://www.w3.org/2000/svg" width="16px" height="16px" viewBox="-0.641 -0.055 16 16">
<path fill="#777777" d="M10.865,9.451c0.592-0.951,0.938-2.08,0.938-3.285c0-3.438-2.783-6.221-6.222-6.221
c-3.438,0-6.222,2.783-6.222,6.221c0,3.439,2.784,6.222,6.222,6.222c1.209,0,2.333-0.346,3.284-0.938l4.086,4.08
c0.547,0.553,1.443,0.553,1.994,0c0.553-0.549,0.553-1.447,0-1.996L10.865,9.451z M5.582,10.611c-2.454,0-4.443-1.992-4.443-4.445
s1.989-4.444,4.443-4.444c2.454,0,4.445,1.991,4.445,4.444S8.035,10.611,5.582,10.611z"/>
</svg>