<svg version="1.1" id="Capa_1" xmlns="http://www.w3.org/2000/svg" xmlns:xlink="http://www.w3.org/1999/xlink" x="0px" y="0px"
	 viewBox="-164 42.3 512 512" enable-background="new -164 42.3 512 512" xml:space="preserve">
<g>
	<path fill="#113E50" d="M197.1,181.6c-9.9-0.1-19.8-0.1-29.6,0c-5.2,0-8.5,3.4-8.7,8.5c-0.1,5.1,0,10.3,0,15.4c0,0,0,0,0,0
		c0,5.2-0.1,10.4,0,15.6c0.1,5,3.7,8.4,8.8,8.4c9.8,0,19.6,0,29.4,0c5.2,0,8.9-3.6,8.9-8.8c0-10,0-20.1,0-30.1
		C205.9,185.2,202.4,181.6,197.1,181.6z"/>
	<path fill="#113E50" d="M92,42.3c-141.4,0-256,114.6-256,256c0,141.4,114.6,256,256,256c141.4,0,256-114.6,256-256
		C348,156.9,233.4,42.3,92,42.3z M231.2,299.7c0,28.2,0,56.4-0.1,84.6c-0.1,13.9-5.1,25.9-14.4,36c-8.2,9-18.3,14.6-30.3,16.9
		c-3,0.6-6.1,0.9-9.2,0.9c-56.6,0-113.2,0.2-169.8,0c-25.6-0.1-46.8-17-52.9-41.4c-1.2-4.8-1.7-9.8-1.7-14.8c0-26.3,0-52.6,0-78.9
		c0-13.5-0.1-26.9-0.1-40.4c0-0.6,0-1.2,0.1-1.8c0.2-1.7,0.9-2.4,2.6-2.5c1.8-0.1,3.6-0.1,5.4-0.1c24,0,48,0,71.9,0.1
		c0.3,0,0.6,0,1.1,0c-10.8,16.1-15.4,33.5-12.2,52.6c2.8,16.7,10.3,30.8,23.2,42c25.7,22.4,62.6,23.8,89.7,3.5
		c15.3-11.6,24.6-27,27.6-45.9c3-19-1.6-36.3-12.3-52.2c0.4,0,0.7,0,1,0c23.1,0,46.2,0,69.3,0c2.6,0,5.1,0,7.7,0c0.5,0,1,0,1.5,0.1
		c1.2,0.1,1.9,0.7,1.9,1.9c0.1,1.6,0.1,3.2,0.1,4.8C231.2,276.6,231.2,288.1,231.2,299.7z M37,299.5c0-30.2,24.8-54.8,55.2-54.8
		c30.3,0,54.8,24.6,54.8,55c0,30.4-24.5,54.8-55.1,54.7C61.6,354.4,37,329.8,37,299.5z M231.2,247.8c0,1.6-0.4,2-2,2
		c-0.3,0-0.7,0-1,0c-27.7,0-55.3,0-83,0c-1.9,0-3.3-0.5-4.6-1.8c-3.6-3.5-7.6-6.5-11.9-9.1c-15.4-9.3-31.9-12.5-49.6-9.3
		c-13.8,2.5-25.7,8.8-36,18.3c-1.4,1.3-2.8,1.8-4.7,1.8c-27.8,0-55.7,0-83.5,0c-1.7,0-2.1-0.4-2.1-2.1c0-2.5,0.1-5,0-7.5
		c-0.1-10.5-0.5-21.1,0.3-31.6c0.5-6.4,1.9-12.5,4.6-18.4c4.1-8.8,10.4-15.8,18-21.6c0.1-0.1,0.3-0.1,0.4-0.2c0,0.1,0,0.2,0,0.3
		c0,16.6,0,33.2,0,49.9c0,2.3-0.1,4.6,0,6.9c0.1,1.6,0.7,2.2,2.3,2.2c2.1,0,4.2-0.1,6.3-0.3c1.4-0.1,2.1-1,2.3-2.4
		c0.1-0.9,0.2-1.8,0.2-2.7c0-18.8,0-37.6,0-56.4c0-0.4,0-0.8-0.1-1.2c-0.3-1.9-0.1-2.1,1.5-2.9c1.7-0.8,3.4-1.5,5.3-1.6
		c1.3-0.1,1.7,0.3,1.5,1.6c-0.1,0.5-0.1,1-0.1,1.5c0,17,0,34,0,51c0,3.7,0,7.4,0,11.2c0,1.6,0.6,2.3,2.2,2.3c2,0,4,0,6-0.2
		c1.9-0.1,2.6-1,2.9-2.8c0.1-1,0.2-2.1,0.2-3.2c0-10,0.1-19.9,0.1-29.9c0-9.9-0.1-19.8-0.1-29.6c0-2.7,0.2-3,2.6-3.7
		c1.1,0,2.2,0,3.3,0c1.5,0.4,2,1.5,2,2.9c0,0.4,0,0.9,0,1.3c0,8.7-0.1,17.4-0.1,26.1c0,9.6,0,19.2,0,28.7c0,2.6,0,5.3,0,7.9
		c0,1.6,0.7,2.3,2.3,2.3c2.2,0,4.3-0.1,6.5-0.3c1.2-0.1,2-0.9,2.2-2.1c0.1-0.8,0.3-1.6,0.3-2.4c0-3,0-6.1,0-9.1
		c0-17.4,0-34.7,0-52.1c0-1.8,0-2.7,2.1-3.2c42.1,0,84.3,0,126.4,0c0.3,0,0.6,0.1,0.9,0.1c7.5,0,15,0,22.6,0c3.8,0,7.6,0.4,11.3,1.3
		c11.7,2.8,21.3,8.9,29.1,18c6.2,7.2,10.4,15.5,12.1,25c0.9,5,1,10.2,1.1,15.3C231.4,227.9,231.3,237.8,231.2,247.8z"/>
	<path fill="#113E50" d="M93.4,340.1c21.5-0.6,39.5-18.7,39.3-39.9c0.1-22.5-17.4-41.4-41-41.1c-22.4,0.3-40.5,19-39.8,41.2
		C52.5,322.7,70.6,340.7,93.4,340.1z"/>
</g>
</svg>
