<svg xmlns="http://www.w3.org/2000/svg" width="429.594px" height="446.063px" viewBox="86.911 198.327 429.594 446.063">
<rect x="86.911" y="198.327" fill="#0F3E4F" width="429.594" height="446.063"/>
<polygon fill="#0D333D" points="516.505,412.985 374.392,270.712 169.338,609.982 197.435,644.39 516.505,644.39 	"/>
<polygon fill="#EBCFA6" points="150.249,582.783 204.896,614.769 250.692,536.39 180.171,531.628 	"/>
<rect x="153.523" y="557.68" transform="matrix(0.8629 0.5053 -0.5053 0.8629 314.4418 -19.4363)" fill="#E8F0EE" width="79.05" height="24.444"/>
<polygon fill="#FEFADF" points="152.749,560.439 165.488,567.582 165.646,539.367 165.091,539.367 	"/>
<polygon fill="#C9E3D8" points="95.721,644.333 205.252,644.333 228.429,604.767 145.288,556.074 	"/>
<polygon fill="#E9F4EF" points="95.721,644.333 165.012,644.333 165.488,567.582 145.288,556.074 	"/>
<path fill="#F9E59E" d="M161.4,552.542c-2.024,3.451-0.873,7.896,2.58,9.92c3.452,2.025,7.897,0.873,9.881-2.578
c2.024-3.453,0.873-7.898-2.58-9.883C167.869,547.939,163.424,549.089,161.4,552.542z"/>
<path fill="#FADAB1" d="M289.743,525.437c0,12.658-9.247,22.938-20.637,22.938h-71.91c-11.39,0-20.636-10.279-20.636-22.938
v-59.33c0-12.66,9.247-22.938,20.636-22.938h71.91c11.39,0,20.637,10.277,20.637,22.938V525.437z"/>
<path fill="#FADAB1" d="M182.037,440.152c-10.556-0.078-18.811,8.732-18.454,19.645l2.262,69.053
c0.357,10.953,9.207,19.883,19.724,19.963l7.938,0.078c10.556,0.08,18.811-8.73,18.454-19.645l-2.262-69.051
c-0.357-10.953-9.207-19.883-19.724-19.963L182.037,440.152z"/>
<path fill="#EB9069" d="M402.091,528.771c0.438,4.365-2.777,8.293-7.143,8.73l-183.981,18.334
c-4.366,0.438-8.294-2.777-8.731-7.143l-24.843-249.344c-0.437-4.365,2.778-8.294,7.143-8.73l183.982-18.335
c4.365-0.437,8.293,2.778,8.73,7.144L402.091,528.771z"/>
<path fill="#848E89" d="M320.815,298.556c0.16,1.548-0.992,2.977-2.539,3.135l-78.696,7.858c-1.547,0.159-2.976-0.992-3.135-2.54
l-2.223-22.422c-0.159-1.548,0.992-2.977,2.54-3.135l78.695-7.857c1.549-0.159,2.977,0.992,3.137,2.54L320.815,298.556z"/>
<rect x="197.442" y="301.853" transform="matrix(-0.9951 0.0992 -0.0992 -0.9951 620.1838 806.5586)" fill="#C9E3D8" width="185.215" height="233.674"/>
<path fill="#848E89" d="M343.595,303.437c0.438,4.365-2.777,8.294-7.143,8.73l-112.944,11.271
c-4.366,0.437-8.294-2.778-8.731-7.144l-1.468-14.922c-0.437-4.365,2.778-8.294,7.144-8.73l112.943-11.271
c4.367-0.437,8.295,2.778,8.732,7.143L343.595,303.437z M338.913,288.833c-0.277-2.619-2.619-4.563-5.238-4.286l-112.945,11.271
c-2.619,0.278-4.563,2.619-4.286,5.238l1.468,14.922c0.278,2.619,2.619,4.563,5.238,4.286l112.983-11.271
c2.619-0.278,4.564-2.619,4.287-5.238L338.913,288.833z"/>
<rect x="229.785" y="285.898" transform="matrix(-0.9951 0.0992 -0.0992 -0.9951 581.5441 548.9668)" fill="#FFDBA9" width="94.691" height="6.072"/>
<rect x="257.205" y="345.31" transform="matrix(-0.9951 0.0992 -0.0992 -0.9951 644.8632 662.0635)" fill="#79B89D" width="97.549" height="3.493"/>
<rect x="257.841" y="351.659" transform="matrix(-0.9951 0.0991 -0.0991 -0.9951 646.76 674.6689)" fill="#79B89D" width="97.549" height="3.492"/>
<rect x="258.476" y="358.009" transform="matrix(-0.9951 0.0991 -0.0991 -0.9951 648.6566 687.2742)" fill="#79B89D" width="97.55" height="3.492"/>
<rect x="259.113" y="364.359" transform="matrix(-0.9951 0.0991 -0.0991 -0.9951 650.5558 699.8787)" fill="#79B89D" width="97.549" height="3.492"/>
<rect x="259.787" y="372.339" transform="matrix(-0.9951 0.0992 -0.0992 -0.9951 619.9536 717.3585)" fill="#79B89D" width="64.728" height="3.492"/>
<rect x="213.392" y="399.603" transform="matrix(-0.9951 0.0991 -0.0991 -0.9951 615.2902 772.1205)" fill="#79B89D" width="150.134" height="3.492"/>
<rect x="214.028" y="405.953" transform="matrix(-0.9951 0.0992 -0.0992 -0.9951 617.1874 784.7252)" fill="#79B89D" width="150.133" height="3.492"/>
<rect x="214.664" y="412.302" transform="matrix(-0.9951 0.0992 -0.0992 -0.9951 619.0859 797.33)" fill="#79B89D" width="150.133" height="3.492"/>
<rect x="215.299" y="418.652" transform="matrix(-0.9951 0.0991 -0.0991 -0.9951 620.9813 809.9358)" fill="#79B89D" width="150.134" height="3.492"/>
<rect x="216.052" y="427.502" transform="matrix(-0.9951 0.0992 -0.0992 -0.9951 572.8105 830.0287)" fill="#79B89D" width="99.455" height="3.494"/>
<rect x="221.451" y="479.331" transform="matrix(-0.9951 0.0992 -0.0992 -0.9951 554.0799 934.6184)" fill="#79B89D" width="64.729" height="3.494"/>
<rect x="222.082" y="485.641" transform="matrix(-0.9951 0.0992 -0.0992 -0.9951 555.9651 947.1438)" fill="#79B89D" width="64.729" height="3.492"/>
<rect x="222.718" y="491.991" transform="matrix(-0.9951 0.0992 -0.0992 -0.9951 557.863 959.7487)" fill="#79B89D" width="64.729" height="3.492"/>
<rect x="223.353" y="498.341" transform="matrix(-0.9951 0.0992 -0.0992 -0.9951 559.76 972.3536)" fill="#79B89D" width="64.729" height="3.492"/>
<rect x="224.028" y="505.762" transform="matrix(-0.9951 0.0992 -0.0992 -0.9951 540.1097 988.1749)" fill="#79B89D" width="42.941" height="3.494"/>
<path fill="#FADAB1" d="M164.099,459.439c1.429,6.152,7.541,9.961,13.652,8.572l38.693-8.928c6.151-1.43,9.961-7.541,8.532-13.691
l-1.071-4.645c-1.429-6.15-7.541-9.961-13.652-8.531l-38.693,8.928c-6.151,1.43-9.961,7.541-8.532,13.652L164.099,459.439z"/>
<path fill="#F0EEE1" d="M199.815,450.669c1.111,4.803,5.874,7.777,10.675,6.668l3.294-0.756c4.802-1.109,7.778-5.873,6.667-10.674
l-0.833-3.611c-1.111-4.803-5.874-7.779-10.675-6.668l-3.294,0.754c-4.802,1.111-7.778,5.873-6.667,10.676L199.815,450.669z"/>
<polygon fill="#EBCFA6" points="442.649,582.783 388.003,614.769 358.081,563.615 412.688,531.628 	"/>
<rect x="360.326" y="557.639" transform="matrix(-0.8629 0.5053 -0.5053 -0.8629 1032.8562 859.5632)" fill="#FEFADF" width="79.05" height="24.446"/>
<polygon fill="#E8F0EE" points="440.149,560.439 427.411,567.582 427.212,539.367 427.808,539.367 	"/>
<polygon fill="#E9F4EF" points="497.177,644.333 387.646,644.333 364.47,604.767 447.61,556.074 	"/>
<polygon fill="#C9E3D8" points="497.177,644.333 427.888,644.333 427.411,567.582 447.61,556.074 	"/>
<path fill="#F9E59E" d="M431.499,552.542c2.023,3.451,0.873,7.896-2.58,9.92c-3.453,2.025-7.896,0.873-9.881-2.578
c-1.984-3.453-0.873-7.898,2.578-9.883C425.03,547.939,429.474,549.089,431.499,552.542z"/>
<path fill="#FADAB1" d="M311.45,507.5c-2.738,2.221-3.492,6.508-1.746,9.523l30.955,53.535c1.746,3.057,9.326,5.279,12.342,3.533
l65.52-38.258c3.018-1.746,5.676-6.07,5.875-9.564l2.977-52.502c0.197-3.492-1.865-8.215-4.564-10.438l-44.805-37.146
c-2.699-2.223-7.58-3.016-10.834-1.705l-18.176,7.182c-3.254,1.27-4.365,4.764-2.5,7.699l25.914,40.479
c1.904,2.938,1.389,7.342-1.15,9.803l-10.875,10.438c-2.539,2.42-7.381,3.691-10.754,2.777l-18.375-4.92
c-3.373-0.914-8.373,0.158-11.111,2.381L311.45,507.5z"/>
<polygon fill="#FFDBA9" points="296.965,399.198 280.218,408.881 268.868,369.949 268.868,369.949 	"/>
<path fill="#DE2E46" d="M280.258,408.881c0.238,0.992,0.238,1.627,0.635,2.302l80.8,139.811c1.508,2.619,5,3.414,7.619,1.904
l8.057-4.643c2.619-1.508,3.492-4.881,1.984-7.461l-80.801-139.811c-0.396-0.675-0.833-1.111-1.547-1.786L280.258,408.881z"/>
<path fill="#A72335" d="M288.552,404.079l84.689,146.558l4.086-2.381c2.619-1.508,3.494-4.881,1.984-7.461l-80.76-139.811
c-0.396-0.675-0.833-1.111-1.547-1.786L288.552,404.079z"/>
<polygon fill="#233250" points="278.75,380.307 268.987,370.148 272.916,383.641 	"/>
<path fill="#FADAB1" d="M323.038,516.111c6.191-1.072,10.357-6.945,9.287-13.176l-6.746-39.129
c-1.072-6.191-6.945-10.359-13.176-9.287l-4.684,0.793c-6.191,1.072-10.357,6.945-9.285,13.176l6.746,39.131
c1.07,6.189,6.945,10.357,13.176,9.285L323.038,516.111z"/>
<path fill="#F0EEE1" d="M316.331,479.998c4.842-0.834,8.096-5.438,7.264-10.279l-0.557-3.334
c-0.832-4.842-5.436-8.096-10.277-7.262l-3.652,0.635c-4.842,0.834-8.096,5.438-7.262,10.279l0.555,3.332
c0.834,4.842,5.438,8.096,10.279,7.264L316.331,479.998z"/>
<path fill="#FADAB1" d="M377.407,435.667c1.826-5.596-0.793-11.469-5.834-13.096l-59.211-19.287
c-5.039-1.667-8.73-2.302-10.555,3.294c0,0-8.334,18.85,14.961,25.241l46.828,15.238c5.041,1.627,10.637-1.547,12.461-7.143
L377.407,435.667z"/>
<path fill="#F0EEE1" d="M312.362,403.285c-1.785-0.595-3.373-1.032-4.801-1.151l-0.516,1.31c-1.826,4.564,0.436,9.763,5,11.588
l3.135,1.27c4.564,1.826,9.764-0.437,11.588-5l1.15-2.937L312.362,403.285z"/>
</svg>